/* XPM */
static char *delete_other_windows[] = {
"24 24 8 1 0 0",
"  c #008080",
"! c #00FFFF",
"# c #0000FF",
"$ c #C0C0C0",
"% c #808080",
"& c #000080",
"' c #FFFFFF",
"( c None",
"((((((((((((((((((((((((",
"((((((((((((((((((((((((",
"((((((((((((((((((((((((",
"( !#$ !# !#$ !# !# !#$ (",
"(#%!#!#$!#$!# !#$!%%% %%",
"( #  & #  #& #  # # # #%",
"($'$$'$'$$'$'$'$'$'$'$%%",
"($'''''''''''''''''''' %",
"($''''''''''''''''''''%%",
"($'''''''''''''''''''$ %",
"($''''''''''''''''''''%%",
"($'''''''''''''''''''$%%",
"($'''''''''''''''''''' %",
"($'''$'''''''''''''''$%%",
"($'''''''''''''''''''' %",
"($'''''''''''''''''''$%%",
"($''''''''''''''''''''%%",
"($'''''''''''''''''''$ %",
"($'''''''$'''''''''''$%%",
"( %$%$%$$$$%$%$%%$%$%$ %",
"(%# & & & & &  &  &  &%%",
"((%%%%%%%%%%%%%%%%%%%%%%",
"((((((((((((((((((((((((",
"(((((((((((((((((((((((("
};
