/* XPM */
static char *new_untitled[] = {
"24 24 5 1 0 0",
"  c #C0C0C0",
"! c #FFFFFF",
"# c #808080",
"$ c #02ABEA",
"% c None",
"%%%%%%%%%%%%%%%%%%%%%%%%",
"%%%%%%%%%%%%%%%%%%%%%%%%",
"%%%%%%%%%%%%%%%%%%%%%%%%",
"%%%% ! ! ! ! !   %%%%%%%",
"%%%%!  !  !  !!  #%%%%%%",
"%%%%!! !! !! !!    %%%%%",
"%%%% !!!!!!!!!! !  #%%%%",
"%%%%!!!!!!!!!!!     %%%%",
"%%%%!!!!!!!!!!! !   %%%%",
"%%%% !        ! ! ! %%%%",
"%%%%! !!!!!!!! !! ! %%%%",
"%%%%!!! ! ! !!! !!! %%%%",
"%%%% ! ! ! !  ! ! ! %%%%",
"%%%%! ! !!! !!! ! ! %%%%",
"%%%%!!!!! !!! !!!!! %%%%",
"%%%% !  ! ! ! !  !  %%%%",
"%%%%! !! ! ! ! !! ! %%%%",
"%%%%!! !!!!!!!!! !! %%%%",
"%%%% ! !  !$  !$! ! %%%%",
"%%%%!! !!! !!! !! ! %%%%",
"%%%% !!! !!! !!! !! %%%%",
"%%%%!  ! ! ! ! ! !  %%%%",
"%%%%                %%%%",
"%%%%%%%%%%%%%%%%%%%%%%%%"
};
