/* XPM */
static char *delete_other_windows[] = {
"24 24 145 2 0 0",
"   c #137CD5",
"!  c #2D8CDE",
"#  c #278BE2",
"$  c #2289E1",
"%  c #2088E1",
"&  c #1E88E1",
"'  c #1F88E1",
"(  c #1C86E0",
")  c #2189E2",
"*  c #218AE1",
"+  c #248BE2",
",  c #1C87E1",
"-  c #1B86E0",
".  c #1683DF",
"/  c #1581DF",
"0  c #1883E0",
"1  c #1783E0",
"2  c #1785E2",
"3  c #1E85E0",
"4  c #248AE1",
"5  c #64A1D5",
"6  c #0E74CD",
"7  c #2686DC",
"8  c #1E84E1",
"9  c #1F85E0",
":  c #1D85E1",
";  c #1B84E1",
"<  c #1D86E1",
"=  c #1984E0",
">  c #1E86E1",
"?  c #1B84E0",
"@  c #1680E0",
"A  c #1481E0",
"B  c #1480DF",
"C  c #1A82E1",
"D  c #409BED",
"E  c #2086E3",
"F  c #419EF1",
"G  c #3B8FDC",
"H  c #917B8A",
"I  c #4A7CB4",
"J  c #4680B1",
"K  c #848586",
"L  c #0058B4",
"M  c #0051AF",
"N  c #004EAC",
"O  c #004FAB",
"P  c #014FAC",
"Q  c #014EAC",
"R  c #004FAC",
"S  c #004EAB",
"T  c #0050AB",
"U  c #0450AD",
"V  c #1463B8",
"W  c #0652AE",
"X  c #1360B8",
"Y  c #1055AD",
"Z  c #3B507D",
"[  c #1A57A1",
"]  c #326292",
"^  c #797979",
"_  c #7DB3DE",
"`  c #D1E1E4",
"a  c #CADDE2",
"b  c #CADEE3",
"c  c #CADDE3",
"d  c #CADEE2",
"e  c #C9DDE2",
"f  c #C7DAE1",
"g  c #C8DCE2",
"h  c #C7DBE2",
"i  c #C7DCE4",
"j  c #C1DDE9",
"k  c #AED1E3",
"l  c #4D779B",
"m  c #767777",
"n  c #93C0ED",
"o  c #FFFFFF",
"p  c #FFFFFD",
"q  c #D8E9F8",
"r  c #597DA0",
"s  c #747577",
"t  c #91BDE9",
"u  c #FFFFFB",
"v  c #FFFFFE",
"w  c #FFFFFA",
"x  c #FFFFF9",
"y  c #FFFFFC",
"z  c #D8E8F7",
"{  c #597C9E",
"|  c #92BCE7",
"}  c #D9E8F7",
"~  c #5A7B9D",
" ! c #93BBE5",
"!! c #D9E7F6",
"#! c #5B7A9B",
"$! c #747576",
"%! c #95BAE4",
"&! c #DAE7F6",
"'! c #5C799A",
"(! c #96B9E2",
")! c #DAE6F5",
"*! c #5D7798",
"+! c #97B8E0",
",! c #DBE6F4",
"-! c #5D7797",
".! c #98B7DF",
"/! c #DBE6F3",
"0! c #5E7695",
"1! c #9AB6DC",
"2! c #DBE5F3",
"3! c #5F7593",
"4! c #9AB4DA",
"5! c #DCE5F2",
"6! c #607492",
"7! c #9CB3D9",
"8! c #DCE4F1",
"9! c #617391",
":! c #9FB5D9",
";! c #DDE5F1",
"<! c #647590",
"=! c #747476",
">! c #6182BF",
"?! c #92A8D2",
"@! c #90A7D1",
"A! c #91A7CD",
"B! c #91A6CD",
"C! c #91A6D0",
"D! c #91A6D1",
"E! c #91A7D0",
"F! c #91A7CF",
"G! c #829CCB",
"H! c #4D6388",
"I! c #355594",
"J! c #314E86",
"K! c #2C4982",
"L! c #2C4981",
"M! c #2D4982",
"N! c #2B477D",
"O! c #2D4981",
"P! c #2E4B84",
"Q! c #445474",
"R! c #767778",
"S! c #808080",
"T! c None",
"T!T!T!T!T!T!T!T!T!T!T!T!T!T!T!T!T!T!T!T!T!T!T!T!",
"T!T!T!T!T!T!T!T!T!T!T!T!T!T!T!T!T!T!T!T!T!T!T!T!",
"T!T!T!T!T!T!T!T!T!T!T!T!T!T!T!T!T!T!T!T!T!T!T!T!",
"T!  ! # $ % & ' ( ) * + ' , - . / 0 1 2 3 4 5 T!",
"T!6 7 8 9 : ; < = > ? ? @ A B C D E F G H I J K ",
"T!L M N O O N P P Q R S N R T U V W X Y Z [ ] ^ ",
"T!_ ` a b b c b b b d a c c c e f g h i j k l m ",
"T!n o p p p p p p p p p p p p p p p p p o q r s ",
"T!t o u v w w w w w w x p w w w w u w w y z { s ",
"T!| o x x w w w w w w w x w w w w y u u p } ~ s ",
"T! !o x w w w w w w w w w w w w w w w x p !!#!$!",
"T!%!o w w y y w w w w w w w w w w w w w y &!'!s ",
"T!(!o x w x x w w w w w w w w w w w w w w )!*!$!",
"T!+!o x w w w w w w w w w w w w w w w w u ,!-!$!",
"T!.!o x w w w w w w w w w w w w w w w w u /!0!$!",
"T!1!v w w w w w w w w w w w w w w w w w u 2!3!$!",
"T!4!v u u u w w w w w w w w w w w w w w u 5!6!$!",
"T!7!p u w w w w w w w w w w w w w w w w u 8!9!$!",
"T!:!o v v v v v v v v v v v v v v v v v v ;!<!=!",
"T!>!?!@!@!@!A!B!C!D!D!D!D!D!D!D!D!D!E!C!F!G!H!$!",
"T!I!J!K!K!K!L!L!M!K!K!M!K!K!M!K!K!M!L!N!O!P!Q!R!",
"T!T!S!S!S!S!S!S!S!S!S!S!S!S!S!S!S!S!S!S!S!S!S!S!",
"T!T!T!T!T!T!T!T!T!T!T!T!T!T!T!T!T!T!T!T!T!T!T!T!",
"T!T!T!T!T!T!T!T!T!T!T!T!T!T!T!T!T!T!T!T!T!T!T!T!"
};
