/* XPM */
static char *new_untitled[] = {
"24 24 62 1 0 0",
"  c #DBDBDB",
"! c #DDDEDF",
"# c #E3E4E6",
"$ c #DEDFE0",
"% c #DFDFE0",
"& c #D2D2D2",
"' c #C1C1C2",
"( c #BBBBBA",
") c #E8E8E8",
"* c #CDCDCE",
"+ c #EFEFF0",
", c #E9E9EA",
"- c #C0C0C1",
". c #B1B0AF",
"/ c #A7A5A3",
"0 c #E9E8EA",
"1 c #D0D0D1",
"2 c #F4F4F4",
"3 c #F7F7F8",
"4 c #CDCDCD",
"5 c #CFCFCF",
"6 c #ADACAA",
"7 c #E7E7E7",
"8 c #F9F9F9",
"9 c #F3F3F2",
": c #D6D6D6",
"; c #ABA9A8",
"< c #A9A7A6",
"= c #C5C5C5",
"> c #D3D3D3",
"? c #C8C8C8",
"@ c #B5B5B5",
"A c #AEADAC",
"B c #DADADA",
"C c #C9C9C9",
"D c #B9B9B9",
"E c #B0AFAE",
"F c #E5E5E6",
"G c #DCE4EA",
"H c #D4DFE6",
"I c #CECDCD",
"J c #E6E6E7",
"K c #E6EBEF",
"L c #E1E8ED",
"M c #CFCECD",
"N c #E7E7E8",
"O c #EFF2F4",
"P c #EDF0F3",
"Q c #CFCECE",
"R c #E5EBEE",
"S c #EDF0F2",
"T c #ECEFF1",
"U c #ECF0F1",
"V c #EFF1F3",
"W c #D4DEE6",
"X c #E0E7EC",
"Y c #ECF0F2",
"Z c #C7C6C5",
"[ c #D0CFCE",
"] c #D0CFCD",
"^ c #BBBAB8",
"_ c None",
"________________________",
"________________________",
"________________________",
"____ !#$!#$!#%&'(_______",
"____)%*+%*+%*+,-./______",
"____)0120120123456/_____",
"____78888888888 9:;<____",
"____)8888888888=>?@A____",
"____)8888888888)BCDE____",
"____FGHHHHHHHHHHHHGI____",
"____JKLLLLLLLLLLLLKM____",
"____NOPPPPPPPPPPPPOQ____",
"____FGHHHHHHHHHHHHGI____",
"____JKLLLLLLLLLLLLKM____",
"____NOPPPPPPPPPPPPOQ____",
"____FGHHHHHHHHHHHHGI____",
"____JKLLLLLLLLLLLLRI____",
"____JOPPPPPPPPPSTUVM____",
"____FGHHHHHHHHHWWWGI____",
"____FKLLLLLLLLXXXXRI____",
"____JOPPPPPPPPYTTUVM____",
"____FGHHHHHHHWWWWWGI____",
"____Z[[[[[[[[]]]]]]^____",
"________________________"
};
